<?xml version="1.0" encoding="utf-8"?>

<!DOCTYPE svg PUBLIC "-//W3C//DTD SVG 1.1//EN" "http://www.w3.org/Graphics/SVG/1.1/DTD/svg11.dtd">
<!-- Uploaded to: SVG Repo, www.svgrepo.com, Generator: SVG Repo Mixer Tools -->
<svg height="800px" width="800px" version="1.1" id="_x32_" xmlns="http://www.w3.org/2000/svg" xmlns:xlink="http://www.w3.org/1999/xlink" 
	 viewBox="0 0 512 512"  xml:space="preserve">
<style type="text/css">
	.st0{fill:#000000;}
</style>
<g>
	<path class="st0" d="M186.469,408.911c32.102,0,56.032-21.571,56.032-54.189c0-23.421-13.152-38.94-23.668-43.411v-0.525
		c13.152-8.68,19.983-22.102,19.983-37.097c0-28.941-19.197-49.455-52.609-49.455c-28.941,0-48.676,16.575-52.624,38.146
		c-0.262,1.572,0.524,2.891,2.112,3.153l22.357,5.266c1.588,0.262,2.637-0.262,3.161-1.842
		c3.161-11.048,10.793-18.418,23.945-18.418c14.987,0,23.93,9.999,23.93,24.207c0,15.781-10.253,26.042-26.042,26.042h-7.108
		c-1.573,0-2.621,1.049-2.621,2.63v20.784c0,1.581,1.048,2.629,2.621,2.629h7.632c17.624,0,29.203,11.055,29.203,29.203
		c0,15.264-9.729,26.574-26.304,26.574c-14.74,0-23.421-8.419-27.106-18.942c-0.524-1.58-1.834-2.104-3.145-1.842l-22.897,5.266
		c-1.572,0.524-2.359,1.834-2.096,3.415C136.744,394.972,158.577,408.911,186.469,408.911z"/>
	<path class="st0" d="M296.713,281.583l27.352-19.204h0.524v141.011c0,1.58,1.064,2.629,2.637,2.629h24.207
		c1.572,0,2.621-1.048,2.621-2.629V229.754c0-1.572-1.048-2.629-2.621-2.629h-22.373c-2.097,0-3.407,0.524-4.733,1.58
		l-28.664,20.784c-1.326,1.048-1.85,2.104-1.85,3.677v26.836C293.814,282.108,295.125,282.632,296.713,281.583z"/>
	<path class="st0" d="M118.612,89.297c9.482,0,17.176-7.686,17.176-17.169v-54.96C135.788,7.686,128.094,0,118.612,0
		c-9.483,0-17.177,7.686-17.177,17.169v54.96C101.435,81.611,109.129,89.297,118.612,89.297z"/>
	<path class="st0" d="M255.993,89.297c9.482,0,17.176-7.686,17.176-17.169v-54.96C273.168,7.686,265.475,0,255.993,0
		c-9.483,0-17.17,7.686-17.17,17.169v54.96C238.823,81.611,246.51,89.297,255.993,89.297z"/>
	<path class="st0" d="M427.001,44.899h-2.714v27.229c0,17.038-13.861,30.906-30.914,30.906c-17.038,0-30.914-13.869-30.914-30.906
		V44.899h-75.552v27.229c0,17.038-13.869,30.906-30.914,30.906c-17.038,0-30.907-13.869-30.907-30.906V44.899h-75.56v27.229
		c0,17.038-13.869,30.906-30.914,30.906c-17.038,0-30.914-13.869-30.914-30.906V44.899h-2.698
		c-37.074,0-67.133,30.058-67.133,67.133v332.835c0,37.074,30.058,67.133,67.133,67.133h342.002
		c37.066,0,67.133-30.058,67.133-67.133V112.032C494.134,74.958,464.067,44.899,427.001,44.899z M466.642,439.771
		c0,24.716-20.029,44.753-44.744,44.753H90.103c-24.716,0-44.76-20.037-44.76-44.753V127.328h421.299V439.771z"/>
	<path class="st0" d="M393.373,89.297c9.483,0,17.176-7.686,17.176-17.169v-54.96C410.549,7.686,402.855,0,393.373,0
		c-9.483,0-17.177,7.686-17.177,17.169v54.96C376.196,81.611,383.89,89.297,393.373,89.297z"/>
</g>
</svg>